<svg xmlns="http://www.w3.org/2000/svg" xmlns:xlink="http://www.w3.org/1999/xlink" width="1024" height="1024" viewBox="0 0 1024 1024"><defs><style>.a{clip-path:url(#b);}.b{fill:#010326;}.c{fill:#f24c27;}.d{fill:#f2d1c9;}.e,.f{stroke:none;}.f{fill:#707070;}.g{fill:#fff;}</style><clipPath id="b"><rect width="1024" height="1024"/></clipPath></defs><g id="a" class="a"><rect class="g" width="1024" height="1024"/><g class="b"><path class="e" d="M 1023.5 1023.5 L 0.5 1023.5 L 0.5 0.5 L 1023.5 0.5 L 1023.5 1023.5 Z"/><path class="f" d="M 1 1 L 1 1023 L 1023 1023 L 1023 1 L 1 1 M 0 0 L 1024 0 L 1024 1024 L 0 1024 L 0 0 Z"/></g><g class="c" transform="translate(1034 125.667)"><path class="e" d="M -400.7625732421875 591.0200805664063 L -400.7631225585938 591.0200805664063 C -403.7363586425781 591.02001953125 -405.67626953125 590.7811279296875 -405.6954956054688 590.7787475585938 L -405.7265014648438 590.7748413085938 L -405.7578125 590.7748413085938 L -642.2760009765625 590.7748413085938 L -642.2938842773438 590.7748413085938 L -642.3118286132813 590.7761840820313 C -642.3190307617188 590.776611328125 -643.0568237304688 590.8283081054688 -644.3012084960938 590.8283081054688 C -647.8809814453125 590.828369140625 -654.9279174804688 590.4210815429688 -661.9039916992188 587.6931762695313 C -665.823974609375 586.1603393554688 -669.1786499023438 584.09375 -671.874755859375 581.5510864257813 C -675.0896606445313 578.5191040039063 -677.4115600585938 574.7630004882813 -678.776123046875 570.3873291015625 C -680.423583984375 565.1034545898438 -686.1163330078125 555.2593994140625 -695.6962890625 541.1285400390625 L -695.8788452148438 540.8593139648438 L -696.1989135742188 540.9169921875 C -703.1268310546875 542.1666870117188 -711.1962890625 542.1666870117188 -719.0001220703125 542.1666870117188 C -728.5111083984375 542.1666870117188 -740.3479614257813 542.1666870117188 -749.6234130859375 539.7645874023438 C -760.306640625 536.9979248046875 -765.4998779296875 531.6231079101563 -765.4998779296875 523.3329467773438 L -765.4998779296875 517.7079467773438 L -765.4998779296875 517.2079467773438 L -765.9998779296875 517.2079467773438 L -783.9998779296875 517.2079467773438 C -784.375732421875 517.2079467773438 -784.7705078125 517.116943359375 -785.1038208007813 516.0294799804688 C -785.4056396484375 515.0445556640625 -785.573486328125 513.525634765625 -785.8057250976563 511.4233093261719 C -786.5873413085938 504.349609375 -788.0421142578125 491.1827697753906 -797.7337646484375 470.91455078125 C -807.6265258789063 450.2253112792969 -818.3363037109375 441.3943786621094 -824.735107421875 436.1180114746094 C -828.3298950195313 433.1538391113281 -830.4996337890625 431.3646850585938 -830.4996337890625 429.2856140136719 C -830.4996337890625 428.3145446777344 -830.1685180664063 427.6207580566406 -829.4873657226563 427.1647644042969 C -828.8016357421875 426.7056884765625 -827.7459716796875 426.4729309082031 -826.3494873046875 426.4729309082031 C -818.5499877929688 426.4729309082031 -801.8225708007813 433.6802368164063 -788.3819580078125 439.4713745117188 C -778.493408203125 443.7320556640625 -770.627197265625 447.1213073730469 -767.5086059570313 447.2994995117188 C -767.3173217773438 447.5383911132813 -766.9385986328125 448.0119018554688 -766.3908081054688 448.6987609863281 L -765.4998779296875 449.8158569335938 L -765.4998779296875 448.3869934082031 L -765.4998779296875 35.33308029174805 C -765.4998779296875 27.43523216247559 -757.1827392578125 22.77030944824219 -747.5523681640625 17.36884880065918 C -741.2684936523438 13.84430980682373 -734.1461181640625 9.849540710449219 -728.6290283203125 4.41523265838623 C -724.0035400390625 -0.1408282667398453 -720.9979248046875 -5.217395782470703 -719.5391845703125 -10.97528648376465 C -719.5234375 1.058888912200928 -719.5003662109375 14.506516456604 -719.5001220703125 14.66723251342773 L -719.499267578125 15.16638660430908 L -719.0001220703125 15.16638660430908 C -709.1954345703125 15.16638660430908 -699.0677490234375 15.53669452667236 -691.4166870117188 18.22300148010254 C -682.7249145507813 21.27477073669434 -678.4996337890625 26.87154006958008 -678.4996337890625 35.33308029174805 L -678.4996337890625 517.7079467773438 L -678.4996337890625 518.2079467773438 L -677.9996337890625 518.2079467773438 L -642.3956909179688 518.2079467773438 L -407.4488830566406 518.2079467773438 L -366.0002746582031 518.2079467773438 L -365.5002746582031 518.2079467773438 L -365.5002746582031 517.7079467773438 L -365.5002746582031 35.33308029174805 C -365.5002746582031 33.11808013916016 -364.930419921875 31.01761817932129 -363.8065795898438 29.09000205993652 C -362.7764282226563 27.32315635681152 -361.2562866210938 25.65669441223145 -359.2883605957031 24.13684844970703 C -355.9361267089844 21.54792594909668 -351.2486572265625 19.33638763427734 -345.3560485839844 17.56361770629883 C -335.2771301269531 14.53138637542725 -325.0693664550781 13.83915615081787 -324.9674377441406 13.83246326446533 L -324.4999084472656 13.802001953125 L -324.4999084472656 13.33354091644287 L -324.4999084472656 -12.294264793396 C -323.0780029296875 -6.576263904571533 -320.1529541015625 -1.488012075424194 -315.6605224609375 3.120002031326294 C -310.1278076171875 8.795001983642578 -302.9158935546875 13.01577091217041 -296.5528869628906 16.73977088928223 C -286.865966796875 22.40900230407715 -278.5000610351563 27.30515670776367 -278.5000610351563 35.33308029174805 L -278.5000610351563 445.87353515625 L -278.5000610351563 446.7263793945313 L -277.7558288574219 446.3098449707031 C -274.3756713867188 444.4177856445313 -265.4246520996094 439.5487670898438 -255.3360443115234 435.2115478515625 C -249.7125091552734 432.7938537597656 -244.538818359375 430.8860168457031 -239.9585113525391 429.5409240722656 C -234.4653625488281 427.9277648925781 -229.7732086181641 427.10986328125 -226.0124359130859 427.10986328125 C -222.163818359375 427.10986328125 -219.2430419921875 427.9678344726563 -217.3312835693359 429.6600036621094 C -215.1845092773438 431.5599975585938 -214.2656555175781 432.9040832519531 -214.2586669921875 434.154541015625 C -214.2478179931641 436.1043090820313 -216.5431213378906 438.1818542480469 -220.3459014892578 441.623779296875 C -223.2495880126953 444.2519226074219 -226.8633575439453 447.5227661132813 -231.1508178710938 452.2037048339844 C -236.2321319580078 457.751220703125 -240.948974609375 463.8520812988281 -245.5709686279297 470.8547668457031 C -259.4107360839844 491.82421875 -260.3251342773438 504.591552734375 -260.8163452148438 511.4506225585938 C -260.9673461914063 513.5587768554688 -261.0764465332031 515.0819091796875 -261.5138244628906 516.0107421875 C -261.8522033691406 516.7293090820313 -262.4044189453125 517.2079467773438 -263.9996643066406 517.2079467773438 L -278.0000610351563 517.2079467773438 L -278.5000610351563 517.2079467773438 L -278.5000610351563 517.7079467773438 L -278.5000610351563 523.3329467773438 C -278.5000610351563 531.3838500976563 -283.4638977050781 537.4397583007813 -293.2538146972656 541.33251953125 C -302.5763549804688 545.0394897460938 -314.2981262207031 545.994873046875 -322.4898071289063 546.1436157226563 C -322.7532653808594 546.1483764648438 -323.0176391601563 546.1524047851563 -323.2822265625 546.1557006835938 L -323.2822875976563 546.1507568359375 L -323.2830505371094 546.1507568359375 L -323.2829895019531 546.1557006835938 C -323.2935485839844 546.1558227539063 -323.3041381835938 546.1559448242188 -323.314697265625 546.1560668945313 L -323.3147277832031 546.1510620117188 L -323.3149719238281 546.1510620117188 L -323.3185729980469 546.1510620117188 L -323.3185424804688 546.1561279296875 C -323.3339538574219 546.1563110351563 -323.349365234375 546.156494140625 -323.3647766113281 546.1566772460938 L -323.3648071289063 546.1514892578125 L -323.3741149902344 546.1515502929688 L -323.3740844726563 546.1567993164063 C -323.436279296875 546.1575317382813 -323.4985656738281 546.158203125 -323.560791015625 546.1588134765625 L -323.5608215332031 546.1533203125 L -323.6201171875 546.1538696289063 L -323.7062072753906 546.154541015625 L -323.7061462402344 546.1602783203125 C -323.7206115722656 546.160400390625 -323.7351684570313 546.1605224609375 -323.7496032714844 546.16064453125 L -323.7495727539063 546.155029296875 L -323.761962890625 546.1550903320313 L -323.7619323730469 546.1607666015625 C -323.8127136230469 546.1612548828125 -323.863525390625 546.16162109375 -323.914306640625 546.1620483398438 L -323.9143676757813 546.1565551757813 L -323.9185180664063 546.1565551757813 L -323.9185180664063 546.162109375 C -323.9600524902344 546.1624145507813 -324.0017395019531 546.1627197265625 -324.0432739257813 546.1630249023438 L -324.0432739257813 546.15771484375 L -324.052734375 546.15771484375 L -324.052734375 546.1630859375 C -324.269287109375 546.16455078125 -324.4855346679688 546.16552734375 -324.7013549804688 546.1659545898438 L -324.7013549804688 546.1636352539063 L -324.7064208984375 546.1636352539063 L -324.7064208984375 546.166015625 C -324.7301330566406 546.166015625 -324.7538757324219 546.1660766601563 -324.7775573730469 546.1661376953125 L -324.777587890625 546.164306640625 L -324.7818298339844 546.164306640625 L -324.7817993164063 546.1661376953125 C -324.8545532226563 546.166259765625 -324.9272766113281 546.1663208007813 -324.9999084472656 546.1663208007813 C -325.4101867675781 546.1699829101563 -325.8192749023438 546.1719360351563 -326.2202758789063 546.1719360351563 C -336.5032653808594 546.1719970703125 -344.904052734375 544.9451293945313 -351.1894226074219 542.5253295898438 L -351.5659790039063 542.3803100585938 L -351.7872009277344 542.7177734375 C -360.2911376953125 555.688720703125 -365.3907470703125 565.0016479492188 -366.9442749023438 570.3978271484375 C -369.2413635253906 578.3772583007813 -374.4185791015625 584.1566162109375 -382.3320617675781 587.575439453125 C -388.9219055175781 590.4224853515625 -395.9919738769531 591.0200805664063 -400.7625732421875 591.0200805664063 Z"/><path class="f" d="M -400.7625732421875 590.5200805664063 C -396.0391235351563 590.5200805664063 -389.041748046875 589.9296264648438 -382.5303649902344 587.116455078125 C -374.7607421875 583.759765625 -369.6784973144531 578.0883178710938 -367.4248046875 570.2594604492188 C -365.8572692871094 564.8150634765625 -360.7367248535156 555.4564819335938 -352.2053527832031 542.443603515625 L -351.7629089355469 541.768798828125 L -351.0097351074219 542.0587158203125 C -344.7820434570313 544.4563598632813 -336.441650390625 545.6719970703125 -326.2202758789063 545.6719360351563 C -325.8231201171875 545.6719360351563 -325.4155883789063 545.6701049804688 -325.0089721679688 545.6663818359375 L -325.0044250488281 545.6663208007813 L -324.9999084472656 545.6663208007813 C -324.9764099121094 545.6663208007813 -324.9529418945313 545.6663208007813 -324.9294128417969 545.6663208007813 L -324.929443359375 545.6657104492188 L -324.906494140625 545.6654663085938 L -324.906494140625 545.666259765625 C -324.8744506835938 545.666259765625 -324.8424072265625 545.6661987304688 -324.8103332519531 545.6661987304688 L -324.8103637695313 545.6646118164063 L -324.805908203125 545.66455078125 L -324.802978515625 545.6644897460938 L -324.802978515625 545.66455078125 L -324.7966613769531 545.6643676757813 L -324.7925109863281 545.6643676757813 L -324.7879028320313 545.6642456054688 L -324.7706604003906 545.6642456054688 L -324.7706604003906 545.6661376953125 C -324.749267578125 545.6660766601563 -324.7278442382813 545.666015625 -324.7064208984375 545.666015625 L -324.7064208984375 545.6636352539063 L -324.7013549804688 545.6636352539063 L -324.7013549804688 545.6659545898438 C -324.6923522949219 545.6659545898438 -324.6832580566406 545.6659545898438 -324.6742553710938 545.6658935546875 L -324.6742858886719 545.6633911132813 L -324.6415100097656 545.6630249023438 L -324.6170349121094 545.6627807617188 L -324.6170043945313 545.665771484375 C -324.478759765625 545.6654052734375 -324.3404235839844 545.664794921875 -324.2019348144531 545.6640014648438 L -324.2019653320313 545.6589965820313 L -324.183349609375 545.658935546875 L -324.1702880859375 545.6587524414063 L -324.1702270507813 545.663818359375 C -324.1310729980469 545.66357421875 -324.0919189453125 545.663330078125 -324.052734375 545.6630249023438 L -324.052734375 545.65771484375 L -324.0432739257813 545.65771484375 L -324.0432739257813 545.6629638671875 C -324.0051879882813 545.6627197265625 -323.9669799804688 545.6624145507813 -323.9288940429688 545.6621704101563 L -323.9289855957031 545.6566162109375 L -323.9371337890625 545.6568603515625 L -323.9239807128906 545.656494140625 L -323.9105224609375 545.656494140625 L -323.9181213378906 545.6565551757813 L -323.9180908203125 545.6620483398438 C -323.8750610351563 545.6617431640625 -323.8319702148438 545.661376953125 -323.7889404296875 545.6610107421875 L -323.7890625 545.6553955078125 L -323.7836608886719 545.6552124023438 L -323.7805786132813 545.6552124023438 L -323.780517578125 545.660888671875 C -323.7797546386719 545.660888671875 -323.7789916992188 545.660888671875 -323.7781982421875 545.660888671875 L -323.7782897949219 545.6552124023438 L -323.7681274414063 545.655029296875 L -323.7579040527344 545.655029296875 L -323.7495727539063 545.655029296875 L -323.7495727539063 545.66064453125 C -323.7367858886719 545.6605224609375 -323.7239379882813 545.660400390625 -323.7111511230469 545.6602783203125 L -323.7112121582031 545.6546020507813 L -323.5645141601563 545.6533203125 L -323.5637512207031 545.6533203125 L -323.5630493164063 545.6533203125 L -323.5486755371094 545.6532592773438 L -323.5274963378906 545.6530151367188 L -323.5274658203125 545.658447265625 C -323.5165100097656 545.6583251953125 -323.5055541992188 545.658203125 -323.4945983886719 545.6580810546875 L -323.4946594238281 545.6527099609375 L -323.4315795898438 545.652099609375 L -323.4315490722656 545.6574096679688 C -323.4206848144531 545.6572875976563 -323.4098205566406 545.6571655273438 -323.3989868164063 545.6570434570313 L -323.3990478515625 545.6517944335938 L -323.3937377929688 545.6516723632813 L -323.3916625976563 545.6516723632813 L -323.3853149414063 545.6516723632813 L -323.38525390625 545.6516723632813 L -323.384033203125 545.651611328125 L -323.382080078125 545.651611328125 L -323.3775024414063 545.6514892578125 L -323.3619079589844 545.6514892578125 L -323.3543701171875 545.6514892578125 L -323.3543701171875 545.656494140625 C -323.3452453613281 545.6563720703125 -323.3360290527344 545.6563110351563 -323.326904296875 545.6561889648438 L -323.3271179199219 545.6519775390625 L -323.3241271972656 545.65185546875 L -323.3241271972656 545.6511840820313 L -323.3031921386719 545.6509399414063 L -323.2974243164063 545.6506958007813 L -323.2724304199219 545.6506958007813 L -323.2724304199219 545.655517578125 C -323.1660766601563 545.6541748046875 -323.059814453125 545.6527099609375 -322.9537048339844 545.6511840820313 L -322.9537353515625 545.6477661132813 L -322.939208984375 545.6476440429688 L -322.9266662597656 545.6475219726563 L -322.9266357421875 545.6507568359375 C -322.8116455078125 545.6490478515625 -322.6968383789063 545.6471557617188 -322.582275390625 545.6452026367188 L -322.582275390625 545.6444091796875 L -322.5679016113281 545.644287109375 L -322.5676574707031 545.644287109375 L -322.5676574707031 545.6448974609375 C -322.5447998046875 545.64453125 -322.5218811035156 545.6441040039063 -322.4990539550781 545.6436767578125 L -322.4972839355469 545.6436767578125 C -314.3471984863281 545.49560546875 -302.6906433105469 544.5467529296875 -293.4385986328125 540.867919921875 C -288.9182739257813 539.0704345703125 -285.4095764160156 536.783447265625 -283.0099792480469 534.0703735351563 C -281.7165222167969 532.6080322265625 -280.7239685058594 530.993896484375 -280.0599060058594 529.2730712890625 C -279.3566589355469 527.4506225585938 -279.0000610351563 525.4520874023438 -279.0000610351563 523.3329467773438 L -279.0000610351563 517.7079467773438 L -279.0000610351563 516.7079467773438 L -278.0000610351563 516.7079467773438 L -263.9996643066406 516.7079467773438 C -262.5175170898438 516.7079467773438 -262.1920471191406 516.2774047851563 -261.9661865234375 515.7977905273438 C -261.5684204101563 514.9532470703125 -261.4621887207031 513.4690551757813 -261.3150329589844 511.4149169921875 C -260.8205871582031 504.5102233886719 -259.9001159667969 491.6579895019531 -245.98828125 470.5793762207031 C -241.3515930175781 463.5543823242188 -236.6188201904297 457.4331665039063 -231.5195922851563 451.8659973144531 C -227.2162017822266 447.1678466796875 -223.5928192138672 443.8882446289063 -220.6814270019531 441.2530822753906 C -216.9819641113281 437.9046936035156 -214.7490539550781 435.8836059570313 -214.7586669921875 434.1573181152344 C -214.7646636962891 433.0781555175781 -215.6602783203125 431.8066101074219 -217.6626586914063 430.0343933105469 C -219.4802856445313 428.4256286621094 -222.2895050048828 427.60986328125 -226.0124359130859 427.60986328125 C -229.7255096435547 427.60986328125 -234.3702087402344 428.4209899902344 -239.8176574707031 430.0206909179688 C -244.3787384033203 431.3601684570313 -249.5334320068359 433.2611694335938 -255.1385803222656 435.6709289550781 C -265.2055053710938 439.9988403320313 -274.1382751464844 444.85791015625 -277.5115966796875 446.7461547851563 L -279.0000610351563 447.5793151855469 L -279.0000610351563 445.87353515625 L -279.0000610351563 35.33308029174805 C -279.0000610351563 31.83392524719238 -280.6359558105469 28.73954010009766 -284.1483459472656 25.59492492675781 C -287.4254455566406 22.66092491149902 -291.9816589355469 19.99438667297363 -296.805419921875 17.17123222351074 C -303.1957397460938 13.43130970001221 -310.4387512207031 9.192386627197266 -316.0185241699219 3.46907901763916 C -319.7115783691406 -0.3189990818500519 -322.3605346679688 -4.427634239196777 -323.9999084472656 -8.937179565429688 L -323.9999084472656 13.33354091644287 L -323.9999084472656 14.27054023742676 L -324.9349060058594 14.33146381378174 C -325.0362854003906 14.33800220489502 -335.1871337890625 15.02646350860596 -345.2119750976563 18.04238700866699 C -351.0458984375 19.79754066467285 -355.6790466308594 21.98115539550781 -358.9827270507813 24.53254127502441 C -360.8994445800781 26.01284790039063 -362.3771362304688 27.63092613220215 -363.3746643066406 29.34184837341309 C -364.453369140625 31.19200134277344 -365.0002746582031 33.20769500732422 -365.0002746582031 35.33308029174805 L -365.0002746582031 517.7079467773438 L -365.0002746582031 518.7079467773438 L -366.0002746582031 518.7079467773438 L -407.4488830566406 518.7079467773438 L -642.3956909179688 518.7079467773438 L -677.9996337890625 518.7079467773438 L -678.9996337890625 518.7079467773438 L -678.9996337890625 517.7079467773438 L -678.9996337890625 35.33308029174805 C -678.9996337890625 33.09346389770508 -679.3082885742188 31.03415679931641 -679.9170532226563 29.21230888366699 C -680.4888305664063 27.50092506408691 -681.3446655273438 25.94369506835938 -682.460693359375 24.58377075195313 C -684.5446166992188 22.04446411132813 -687.5282592773438 20.11815643310547 -691.5823364257813 18.69477081298828 C -699.1626586914063 16.03323364257813 -709.2396850585938 15.66638660430908 -719.0001220703125 15.66638660430908 L -719.9984130859375 15.66638660430908 L -720.0001220703125 14.6680793762207 C -720.0003662109375 14.5217113494873 -720.0194702148438 3.356453418731689 -720.0347900390625 -7.726419448852539 C -724.8030395507813 5.182425022125244 -737.072021484375 12.0639066696167 -747.3077392578125 17.8049259185791 C -752.107177734375 20.49677085876465 -756.640380859375 23.03938674926758 -759.8961791992188 25.8656177520752 C -763.3781127929688 28.88823318481445 -764.9998779296875 31.89653968811035 -764.9998779296875 35.33308029174805 L -764.9998779296875 448.3869934082031 L -764.9998779296875 451.24462890625 L -766.7816772460938 449.0105285644531 C -767.2213745117188 448.4592590332031 -767.5521240234375 448.0454711914063 -767.7642822265625 447.7802429199219 C -771.12548828125 447.4510498046875 -778.885986328125 444.1073608398438 -788.579833984375 439.9306030273438 C -801.978271484375 434.1576232910156 -818.653076171875 426.9729309082031 -826.3494873046875 426.9729309082031 C -827.6451416015625 426.9729309082031 -828.6072998046875 427.17724609375 -829.209228515625 427.5802307128906 C -829.5485229492188 427.807373046875 -829.9996337890625 428.2313842773438 -829.9996337890625 429.2856140136719 C -829.9996337890625 430.1087036132813 -829.5852661132813 430.933837890625 -828.6561279296875 431.9612426757813 C -827.6756591796875 433.0452270507813 -826.2376098632813 434.2309875488281 -824.4169921875 435.7322387695313 C -817.9862670898438 441.034912109375 -807.22314453125 449.909912109375 -797.2826538085938 470.6988525390625 C -787.5545043945313 491.0436096191406 -786.0935668945313 504.2652282714844 -785.308837890625 511.3683776855469 C -785.088134765625 513.3655395507813 -784.913818359375 514.9429931640625 -784.625732421875 515.8829345703125 C -784.3729858398438 516.7079467773438 -784.1661376953125 516.7079467773438 -783.9998779296875 516.7079467773438 L -765.9998779296875 516.7079467773438 L -764.9998779296875 516.7079467773438 L -764.9998779296875 517.7079467773438 L -764.9998779296875 523.3329467773438 C -764.9998779296875 525.5346069335938 -764.6144409179688 527.5486450195313 -763.8543701171875 529.3190307617188 C -763.14306640625 530.9755249023438 -762.0784912109375 532.476318359375 -760.6900634765625 533.7796020507813 C -759.3751220703125 535.0139770507813 -757.7271118164063 536.1123046875 -755.7918701171875 537.0439453125 C -753.9820556640625 537.9152221679688 -751.864501953125 538.667724609375 -749.4981079101563 539.280517578125 C -740.2843017578125 541.6666870117188 -728.4827880859375 541.6666870117188 -719.0001220703125 541.6666870117188 C -711.21826171875 541.6666870117188 -703.1715698242188 541.6666870117188 -696.2876586914063 540.4249267578125 L -695.6474609375 540.3094482421875 L -695.2824096679688 540.847900390625 C -685.6749877929688 555.0194091796875 -679.9608764648438 564.9078369140625 -678.2987670898438 570.2384643554688 C -676.9601440429688 574.53125 -674.683349609375 578.2149047851563 -671.5316772460938 581.1873168945313 C -668.8824462890625 583.6858520507813 -665.5819091796875 585.7180786132813 -661.7218017578125 587.2274780273438 C -654.8221435546875 589.925537109375 -647.8456420898438 590.328369140625 -644.3012084960938 590.3283081054688 C -643.0786743164063 590.3283081054688 -642.3543701171875 590.2779541015625 -642.34765625 590.2774047851563 L -642.3118286132813 590.2748413085938 L -642.2760009765625 590.2748413085938 L -405.7578125 590.2748413085938 L -405.6951904296875 590.27490234375 L -405.6334228515625 590.2825927734375 C -405.6144409179688 590.2849731445313 -403.6993408203125 590.52001953125 -400.7639770507813 590.5200805664063 L -400.7625732421875 590.5200805664063 M -400.7625732421875 591.5200805664063 C -400.7631225585938 591.5200805664063 -400.7633972167969 591.5200805664063 -400.7639770507813 591.5200805664063 C -403.8081970214844 591.52001953125 -405.7578125 591.2748413085938 -405.7578125 591.2748413085938 L -642.2760009765625 591.2748413085938 C -642.2760009765625 591.2748413085938 -643.0200805664063 591.328369140625 -644.3012084960938 591.328369140625 C -651.1337890625 591.328369140625 -673.2440795898438 589.8070068359375 -679.25341796875 570.5361328125 C -681.0437622070313 564.7943115234375 -687.477294921875 554.1430053710938 -696.110107421875 541.4090576171875 C -703.0778198242188 542.6659545898438 -711.2286376953125 542.6666870117188 -719.0001220703125 542.6666870117188 C -738.3302612304688 542.6666870117188 -765.9998779296875 542.6630859375 -765.9998779296875 523.3329467773438 L -765.9998779296875 517.7079467773438 L -783.9998779296875 517.7079467773438 C -788.2991943359375 517.7079467773438 -782.7236328125 503.4645385742188 -798.184814453125 471.1302185058594 C -813.6458740234375 438.7959289550781 -830.9996337890625 435.6585388183594 -830.9996337890625 429.2856140136719 C -830.9996337890625 426.9389038085938 -829.2586669921875 425.9729309082031 -826.3494873046875 425.9729309082031 C -812.834228515625 425.9729309082031 -774.0797119140625 446.8068542480469 -767.2625732421875 446.8068542480469 C -767.2625732421875 446.8068542480469 -766.8211059570313 447.3572998046875 -765.9998779296875 448.3869934082031 L -765.9998779296875 35.33308029174805 C -765.9998779296875 16.38484764099121 -720.7191162109375 15.87423324584961 -719.04736328125 -17.74922943115234 C -719.0331420898438 -4.543844223022461 -719.0001220703125 14.66638660430908 -719.0001220703125 14.66638660430908 C -699.669921875 14.66638660430908 -677.9996337890625 16.00377082824707 -677.9996337890625 35.33308029174805 L -677.9996337890625 517.7079467773438 L -642.3956909179688 517.7079467773438 L -407.4488830566406 517.7079467773438 L -366.0002746582031 517.7079467773438 L -366.0002746582031 35.33308029174805 C -366.0002746582031 16.00377082824707 -324.9999084472656 13.33354091644287 -324.9999084472656 13.33354091644287 L -324.9999084472656 -19.81799697875977 C -324.0269775390625 14.67269420623779 -278.0000610351563 16.00377082824707 -278.0000610351563 35.33308029174805 L -278.0000610351563 445.87353515625 C -270.9041137695313 441.9015197753906 -242.5144348144531 426.6098022460938 -226.0124359130859 426.6098022460938 C -222.2651214599609 426.6098022460938 -219.1329345703125 427.3975830078125 -216.9998931884766 429.2856140136719 C -206.6192779541016 438.4728393554688 -222.5565032958984 436.893310546875 -245.1536560058594 471.1302185058594 C -267.7499694824219 505.3671569824219 -255.7161254882813 517.7079467773438 -263.9996643066406 517.7079467773438 L -278.0000610351563 517.7079467773438 L -278.0000610351563 523.3329467773438 C -278.0000610351563 541.8372192382813 -303.3572082519531 546.2963256835938 -322.4807434082031 546.6435546875 C -322.4806823730469 546.6435546875 -322.4808349609375 546.6435546875 -322.48095703125 546.6435546875 C -323.3345031738281 546.6589965820313 -324.1740417480469 546.6663208007813 -324.9999084472656 546.6663208007813 C -325.4057922363281 546.6699829101563 -325.8137817382813 546.671875 -326.2203063964844 546.671875 C -335.1423034667969 546.6719970703125 -344.1718444824219 545.7628173828125 -351.3690490722656 542.991943359375 C -359.0948181152344 554.7759399414063 -364.7851867675781 564.7056884765625 -366.4638061523438 570.5361328125 C -371.8423461914063 589.2197875976563 -391.4388732910156 591.5200805664063 -400.7625732421875 591.5200805664063 Z M -324.8965148925781 546.6654052734375 C -324.9042053222656 546.6654663085938 -324.9113464355469 546.66552734375 -324.918212890625 546.6655883789063 C -324.910888671875 546.66552734375 -324.90380859375 546.6654663085938 -324.8965148925781 546.6654052734375 Z M -324.7782897949219 546.664306640625 C -324.7814636230469 546.664306640625 -324.7846374511719 546.6643676757813 -324.7876586914063 546.6643676757813 C -324.7843017578125 546.6643676757813 -324.7813110351563 546.664306640625 -324.7782897949219 546.664306640625 C -324.7761535644531 546.664306640625 -324.7739868164063 546.6642456054688 -324.7718811035156 546.6642456054688 C -324.771484375 546.6642456054688 -324.7710876464844 546.6642456054688 -324.7706604003906 546.6642456054688 C -324.7710571289063 546.6642456054688 -324.771484375 546.6642456054688 -324.7718811035156 546.6642456054688 C -324.7741088867188 546.6642456054688 -324.7762145996094 546.664306640625 -324.7782897949219 546.664306640625 Z M -324.7064208984375 546.6636352539063 C -324.7048034667969 546.6636352539063 -324.702880859375 546.6636352539063 -324.7013549804688 546.6636352539063 C -324.7025146484375 546.6636352539063 -324.7052001953125 546.6636352539063 -324.7064208984375 546.6636352539063 Z M -324.6051330566406 546.6627197265625 C -324.62451171875 546.6629028320313 -324.6434326171875 546.6630859375 -324.6614379882813 546.663330078125 C -324.6423645019531 546.6630859375 -324.6241149902344 546.6629028320313 -324.6051330566406 546.6627197265625 Z M -324.1629028320313 546.6587524414063 C -324.1733703613281 546.6588745117188 -324.1842041015625 546.658935546875 -324.1945190429688 546.6589965820313 C -324.1841125488281 546.658935546875 -324.1731872558594 546.6588745117188 -324.1629028320313 546.6587524414063 Z M -324.052734375 546.65771484375 C -324.0495910644531 546.65771484375 -324.0464172363281 546.65771484375 -324.0432739257813 546.65771484375 C -324.0467529296875 546.65771484375 -324.0492858886719 546.65771484375 -324.052734375 546.65771484375 Z M -323.91015625 546.656494140625 C -323.9130554199219 546.656494140625 -323.9159240722656 546.6565551757813 -323.9185180664063 546.6565551757813 C -323.9157409667969 546.6565551757813 -323.9129333496094 546.656494140625 -323.91015625 546.656494140625 C -323.9066162109375 546.656494140625 -323.9030456542969 546.6564331054688 -323.8999633789063 546.6563720703125 C -323.9033508300781 546.6564331054688 -323.90673828125 546.656494140625 -323.91015625 546.656494140625 Z M -323.7579040527344 546.655029296875 C -323.7616577148438 546.6550903320313 -323.765380859375 546.6550903320313 -323.76904296875 546.6551513671875 C -323.7651977539063 546.6550903320313 -323.7615661621094 546.6550903320313 -323.7579040527344 546.655029296875 C -323.755126953125 546.655029296875 -323.7523498535156 546.655029296875 -323.7495727539063 546.655029296875 C -323.75244140625 546.655029296875 -323.7551879882813 546.655029296875 -323.7579040527344 546.655029296875 Z M -323.5564880371094 546.6533203125 C -323.604736328125 546.6537475585938 -323.6526794433594 546.6541137695313 -323.7018127441406 546.654541015625 C -323.6542053222656 546.6541748046875 -323.6058959960938 546.6537475585938 -323.5564880371094 546.6533203125 C -323.5447082519531 546.6531982421875 -323.5328979492188 546.6531372070313 -323.5210571289063 546.6530151367188 C -323.5329284667969 546.653076171875 -323.5447387695313 546.6531982421875 -323.5564880371094 546.6533203125 Z M -323.423828125 546.652099609375 C -323.4436645507813 546.6522216796875 -323.4632873535156 546.6524047851563 -323.4828186035156 546.652587890625 C -323.463134765625 546.6524047851563 -323.4434204101563 546.6522216796875 -323.423828125 546.652099609375 Z M -323.3693237304688 546.6515502929688 C -323.3745727539063 546.651611328125 -323.3798217773438 546.6516723632813 -323.3851318359375 546.6516723632813 C -323.3795471191406 546.6516723632813 -323.3744506835938 546.651611328125 -323.3693237304688 546.6515502929688 C -323.3668518066406 546.6515502929688 -323.3643493652344 546.6514892578125 -323.3618469238281 546.6514892578125 C -323.3594360351563 546.6514892578125 -323.35693359375 546.6514892578125 -323.3543701171875 546.6514892578125 C -323.3568725585938 546.6514892578125 -323.359375 546.6514892578125 -323.3618469238281 546.6514892578125 C -323.3643798828125 546.6514892578125 -323.3668518066406 546.6515502929688 -323.3693237304688 546.6515502929688 Z M -323.3096313476563 546.6510620117188 C -323.310791015625 546.6510620117188 -323.3119506835938 546.6510620117188 -323.3131103515625 546.6510620117188 C -323.3119506835938 546.6510620117188 -323.310791015625 546.6510620117188 -323.3096313476563 546.6510620117188 C -323.2988891601563 546.6509399414063 -323.2887268066406 546.65087890625 -323.2781066894531 546.6507568359375 C -323.2778015136719 546.6507568359375 -323.2775268554688 546.6507568359375 -323.2772216796875 546.6507568359375 C -323.275634765625 546.6507568359375 -323.2740478515625 546.6506958007813 -323.2724304199219 546.6506958007813 C -323.2740478515625 546.6506958007813 -323.275634765625 546.6507568359375 -323.2772216796875 546.6507568359375 C -323.2775268554688 546.6507568359375 -323.2778015136719 546.6507568359375 -323.2781066894531 546.6507568359375 C -323.2887268066406 546.65087890625 -323.299072265625 546.6509399414063 -323.3096313476563 546.6510620117188 Z M -322.9179077148438 546.6474609375 C -322.9266662597656 546.6475219726563 -322.9361877441406 546.6476440429688 -322.9448852539063 546.647705078125 C -322.9355163574219 546.6476440429688 -322.9272766113281 546.6476440429688 -322.9179077148438 546.6474609375 Z M -322.5581359863281 546.6442260742188 C -322.5661926269531 546.644287109375 -322.5741882324219 546.6444091796875 -322.582275390625 546.6444091796875 C -322.5741882324219 546.6444091796875 -322.5661926269531 546.644287109375 -322.5581359863281 546.6442260742188 Z M -322.4807434082031 546.6435546875 C -322.4689331054688 546.6434326171875 -322.4572143554688 546.643310546875 -322.4454956054688 546.6432495117188 C -322.457275390625 546.643310546875 -322.4690246582031 546.6434326171875 -322.4807434082031 546.6435546875 Z M -322.4454956054688 546.6432495117188 C -322.4310913085938 546.6431274414063 -322.4166259765625 546.6430053710938 -322.4021911621094 546.642822265625 C -322.4164733886719 546.6430053710938 -322.4309692382813 546.6431274414063 -322.4454956054688 546.6432495117188 Z M -322.4021911621094 546.642822265625 C -322.3862915039063 546.6426391601563 -322.3716735839844 546.6425170898438 -322.3557434082031 546.6423950195313 C -322.3712158203125 546.6425170898438 -322.3869018554688 546.6427001953125 -322.4021911621094 546.642822265625 Z M -322.3557434082031 546.6423950195313 C -322.3507385253906 546.642333984375 -322.345703125 546.6422729492188 -322.3406677246094 546.6422729492188 C -322.3456726074219 546.6422729492188 -322.3507080078125 546.642333984375 -322.3557434082031 546.6423950195313 Z M -322.3406677246094 546.6422729492188 C -322.3277893066406 546.6421508789063 -322.3149719238281 546.6420288085938 -322.3018798828125 546.6419067382813 C -322.3146667480469 546.6420288085938 -322.3276977539063 546.6421508789063 -322.3406677246094 546.6422729492188 Z M -322.3018798828125 546.6419067382813 C -322.2972106933594 546.641845703125 -322.2922058105469 546.6417846679688 -322.2872009277344 546.6417846679688 C -322.2921447753906 546.6417846679688 -322.2970581054688 546.641845703125 -322.3018798828125 546.6419067382813 Z M -322.2872009277344 546.6417846679688 C -322.2817687988281 546.6417236328125 -322.2763366699219 546.6417236328125 -322.2709655761719 546.6416015625 C -322.276123046875 546.6417236328125 -322.2816772460938 546.6417236328125 -322.2872009277344 546.6417846679688 Z M -322.2709655761719 546.6416015625 C -322.2552795410156 546.6414794921875 -322.2395324707031 546.641357421875 -322.2237854003906 546.6412353515625 C -322.2392883300781 546.641357421875 -322.2546997070313 546.6414794921875 -322.2709655761719 546.6416015625 Z M -322.2237854003906 546.6412353515625 C -322.2130737304688 546.64111328125 -322.2023010253906 546.6409912109375 -322.1911315917969 546.6409301757813 C -322.2019958496094 546.6409912109375 -322.212890625 546.64111328125 -322.2237854003906 546.6412353515625 Z M -322.1911315917969 546.6409301757813 C -322.1873779296875 546.640869140625 -322.1834106445313 546.640869140625 -322.179443359375 546.6408081054688 C -322.1832885742188 546.640869140625 -322.1871337890625 546.640869140625 -322.1911315917969 546.6409301757813 Z M -322.179443359375 546.6408081054688 C -322.1762390136719 546.6407470703125 -322.1730346679688 546.6407470703125 -322.1697387695313 546.6406860351563 C -322.1728515625 546.6407470703125 -322.1761169433594 546.6407470703125 -322.179443359375 546.6408081054688 Z M -322.1697387695313 546.6406860351563 C -322.1173706054688 546.6402587890625 -322.0651245117188 546.6397705078125 -322.0121154785156 546.6392822265625 C -322.0639038085938 546.6397705078125 -322.1171264648438 546.6402587890625 -322.1697387695313 546.6406860351563 Z M -322.0121154785156 546.6392822265625 C -322.0074768066406 546.6392822265625 -322.0027160644531 546.6392211914063 -321.9979858398438 546.63916015625 C -322.0026550292969 546.6392211914063 -322.00732421875 546.6392822265625 -322.0121154785156 546.6392822265625 Z M -321.9979858398438 546.63916015625 C -321.9932861328125 546.6390991210938 -321.9886169433594 546.6390991210938 -321.9838256835938 546.6390991210938 C -321.9884643554688 546.6390991210938 -321.9932250976563 546.6390991210938 -321.9979858398438 546.63916015625 Z M -321.9838256835938 546.6390991210938 C -321.5299072265625 546.6349487304688 -321.05419921875 546.630615234375 -320.5776672363281 546.6262817382813 C -321.009521484375 546.6302490234375 -321.4776611328125 546.6344604492188 -321.9838256835938 546.6390991210938 Z M -320.5776672363281 546.6262817382813 C -320.5570373535156 546.6261596679688 -320.5360717773438 546.6259765625 -320.5151977539063 546.6257934570313 C -320.5358581542969 546.6259765625 -320.5564880371094 546.6261596679688 -320.5776672363281 546.6262817382813 Z M -320.5151977539063 546.6257934570313 C -320.5040588378906 546.6256713867188 -320.4928894042969 546.6255493164063 -320.4815979003906 546.62548828125 C -320.4927062988281 546.6255493164063 -320.5039367675781 546.6256713867188 -320.5151977539063 546.6257934570313 Z M -320.4815979003906 546.62548828125 C -319.6954040527344 546.6183471679688 -318.9122924804688 546.6112670898438 -318.2306518554688 546.6050415039063 C -318.8312683105469 546.6105346679688 -319.5752258300781 546.6173095703125 -320.4815979003906 546.62548828125 Z M -318.2306518554688 546.6050415039063 C -317.9665832519531 546.6026611328125 -317.7301330566406 546.6005249023438 -317.5198974609375 546.5986328125 C -317.7395935058594 546.6005859375 -317.9781494140625 546.602783203125 -318.2306518554688 546.6050415039063 Z M -317.5198974609375 546.5986328125 C -317.4805908203125 546.5983276367188 -317.44189453125 546.5980224609375 -317.4039001464844 546.5975952148438 C -317.4415893554688 546.5980224609375 -317.4802856445313 546.5983276367188 -317.5198974609375 546.5986328125 Z M -317.4039001464844 546.5975952148438 C -317.1051330566406 546.5949096679688 -316.8455200195313 546.592529296875 -316.6388244628906 546.5906982421875 C -316.8336486816406 546.5924682617188 -317.0867309570313 546.5947875976563 -317.4039001464844 546.5975952148438 Z M -316.6388244628906 546.5906982421875 C -316.6382751464844 546.5906982421875 -316.6377868652344 546.5906982421875 -316.6373291015625 546.5906982421875 C -316.6378173828125 546.5906982421875 -316.6383056640625 546.5906982421875 -316.6388244628906 546.5906982421875 Z M -316.6373291015625 546.5906982421875 C -316.6371154785156 546.5906982421875 -316.6369018554688 546.5906982421875 -316.6366882324219 546.5906372070313 C -316.6369018554688 546.5906982421875 -316.6371154785156 546.5906982421875 -316.6373291015625 546.5906982421875 Z M -316.6366882324219 546.5906372070313 C -316.6365966796875 546.5906372070313 -316.6365356445313 546.5906372070313 -316.6364440917969 546.5906372070313 C -316.6365356445313 546.5906372070313 -316.6365966796875 546.5906372070313 -316.6366882324219 546.5906372070313 Z M -316.6364440917969 546.5906372070313 C -316.63623046875 546.5906372070313 -316.6360168457031 546.5906372070313 -316.6358032226563 546.5906372070313 C -316.6360168457031 546.5906372070313 -316.63623046875 546.5906372070313 -316.6364440917969 546.5906372070313 Z M -316.6358032226563 546.5906372070313 C -316.6159057617188 546.5904541015625 -316.5963439941406 546.59033203125 -316.5774230957031 546.5901489257813 C -316.5963439941406 546.59033203125 -316.6157531738281 546.5904541015625 -316.6358032226563 546.5906372070313 Z M -316.5774230957031 546.5901489257813 C -316.5770568847656 546.5901489257813 -316.5767517089844 546.5901489257813 -316.5764465332031 546.5901489257813 C -316.5767517089844 546.5901489257813 -316.5770874023438 546.5901489257813 -316.5774230957031 546.5901489257813 Z M -316.5764465332031 546.5901489257813 C -316.5762939453125 546.5901489257813 -316.576171875 546.5901489257813 -316.5760498046875 546.5901489257813 C -316.576171875 546.5901489257813 -316.5763244628906 546.5901489257813 -316.5764465332031 546.5901489257813 Z M -316.5760498046875 546.5901489257813 C -316.5759887695313 546.5901489257813 -316.5758972167969 546.590087890625 -316.5758056640625 546.590087890625 C -316.5758972167969 546.590087890625 -316.5759887695313 546.5901489257813 -316.5760498046875 546.5901489257813 Z M -316.5758056640625 546.590087890625 C -316.57568359375 546.590087890625 -316.5755615234375 546.590087890625 -316.575439453125 546.590087890625 C -316.5755615234375 546.590087890625 -316.57568359375 546.590087890625 -316.5758056640625 546.590087890625 Z M -316.575439453125 546.590087890625 C -316.5659790039063 546.5900268554688 -316.5562744140625 546.5900268554688 -316.5469665527344 546.58984375 C -316.5562133789063 546.5900268554688 -316.5658874511719 546.5900268554688 -316.575439453125 546.590087890625 Z M -316.5469665527344 546.58984375 C -316.5176696777344 546.589599609375 -316.4900512695313 546.5894165039063 -316.4634399414063 546.5891723632813 C -316.48974609375 546.5894165039063 -316.5175170898438 546.589599609375 -316.5469665527344 546.58984375 Z M -316.4634399414063 546.5891723632813 C -316.447265625 546.5889892578125 -316.4316711425781 546.5888671875 -316.4166564941406 546.5887451171875 C -316.4317626953125 546.5888671875 -316.4473571777344 546.5889892578125 -316.4634399414063 546.5891723632813 Z M -316.4166564941406 546.5887451171875 C -316.4148559570313 546.5886840820313 -316.4130554199219 546.5886840820313 -316.4112548828125 546.5886840820313 C -316.4130554199219 546.5886840820313 -316.4148559570313 546.5886840820313 -316.4166564941406 546.5887451171875 Z M -316.4112548828125 546.5886840820313 C -316.4103393554688 546.5886840820313 -316.409423828125 546.5886840820313 -316.4085083007813 546.588623046875 C -316.409423828125 546.5886840820313 -316.4103393554688 546.5886840820313 -316.4112548828125 546.5886840820313 Z M -316.4085083007813 546.588623046875 C -316.2864074707031 546.5875244140625 -316.1983337402344 546.5867309570313 -316.1508178710938 546.5863037109375 C -316.1962890625 546.5867309570313 -316.2806701660156 546.5874633789063 -316.4085083007813 546.588623046875 Z M -316.1508178710938 546.5863037109375 C -316.1239013671875 546.5860595703125 -316.1105651855469 546.5859375 -316.1098937988281 546.5859375 C -316.1091918945313 546.5859375 -316.1232299804688 546.5860595703125 -316.1508178710938 546.5863037109375 Z M -719.04736328125 -17.74922943115234 C -719.0548095703125 -24.66461753845215 -719.0570678710938 -29.93377685546875 -719.0467529296875 -29.93377685546875 C -719.0390625 -29.93377685546875 -719.0245361328125 -27.05106163024902 -719.0001220703125 -19.81799697875977 C -718.9977416992188 -19.1146125793457 -719.0137329101563 -18.42538261413574 -719.04736328125 -17.74922943115234 Z"/></g><g class="d" transform="translate(819.5 915) rotate(180)"><path class="e" d="M 612.6015014648438 617.1821899414063 L 306.5648498535156 577.1708374023438 L 306.499755859375 577.1622924804688 L 306.4347839355469 577.1708984375 L 2.403084516525269 617.1795043945313 L 252.7515411376953 471.4320678710938 L 252.9676208496094 471.3063049316406 L 252.9966125488281 471.0580139160156 L 307.5 4.31083345413208 L 362.0033874511719 471.0580139160156 L 362.0323791503906 471.3063049316406 L 362.2484741210938 471.4320678710938 L 612.6015014648438 617.1821899414063 Z"/><path class="f" d="M 307.5 8.62164306640625 L 253.4932250976563 471.1159973144531 L 253.4352416992188 471.6126098632813 L 253.0031433105469 471.8642272949219 L 4.80657958984375 616.3588256835938 L 306.3695373535156 576.6751708984375 L 306.4996032714844 576.6580810546875 L 306.6296081542969 576.675048828125 L 610.2028198242188 616.3643188476563 L 361.996826171875 471.8642272949219 L 361.5647583007813 471.6126098632813 L 361.5067749023438 471.1159973144531 L 307.5 8.62164306640625 M 307.5 0 L 362.5 471 L 615 618 L 306.5 577.6666259765625 L 0 618 L 252.5 471 L 307.5 0 Z"/></g></g></svg>